<?xml version="1.0" standalone="no"?>
<!DOCTYPE svg PUBLIC "-//W3C//DTD SVG 20010904//EN"
 "http://www.w3.org/TR/2001/REC-SVG-20010904/DTD/svg10.dtd">
<svg version="1.0" xmlns="http://www.w3.org/2000/svg"
 width="1241.000000pt" height="1280.000000pt" viewBox="0 0 1241.000000 1280.000000"
 preserveAspectRatio="xMidYMid meet">

<g transform="translate(0.000000,1280.000000) scale(0.100000,-0.100000)"
fill="#000000" stroke="none">
<path d="M2599 12796 c-2 -2 -368 -7 -814 -11 -445 -4 -826 -9 -845 -10 -19
-2 -232 -4 -473 -5 -240 0 -444 -3 -452 -6 -8 -4 -15 -15 -15 -26 0 -22 -131
-22 1425 -3 220 3 663 7 985 10 322 3 653 7 735 10 83 3 447 8 810 11 363 3
662 7 665 9 3 2 313 6 690 10 377 4 687 9 689 11 3 2 -761 4 -1696 4 -935 0
-1702 -2 -1704 -4z"/>
<path d="M5570 11858 c-30 -10 -86 -20 -125 -22 -74 -5 -118 -17 -130 -36 -4
-6 -14 -9 -23 -5 -26 10 -100 -6 -123 -26 -12 -10 -33 -19 -46 -19 -13 0 -34
-6 -46 -14 -12 -8 -44 -17 -71 -21 -53 -7 -199 -71 -243 -104 -14 -12 -33 -21
-42 -21 -9 0 -34 -18 -55 -39 -29 -30 -49 -41 -75 -43 -33 -3 -37 -6 -45 -43
-7 -32 -18 -47 -56 -73 -25 -17 -51 -32 -57 -32 -6 0 -16 -6 -22 -14 -7 -8
-27 -18 -44 -21 -84 -18 -141 -39 -172 -66 -18 -16 -52 -36 -75 -44 -23 -8
-59 -28 -79 -45 -21 -16 -66 -44 -100 -61 -33 -17 -61 -36 -61 -41 0 -5 -21
-18 -46 -30 -55 -24 -207 -172 -244 -237 -14 -24 -36 -54 -49 -65 -54 -47 -92
-92 -118 -141 -41 -76 -122 -196 -152 -226 -14 -15 -35 -44 -46 -65 -10 -22
-27 -50 -37 -63 -10 -13 -18 -36 -18 -52 0 -15 -5 -31 -10 -34 -25 -15 -80
-151 -80 -197 0 -35 -40 -158 -51 -158 -5 0 -9 -24 -9 -53 0 -29 -7 -77 -15
-107 -9 -30 -21 -89 -27 -130 -6 -41 -17 -82 -24 -90 -16 -18 -17 -139 -2
-157 6 -7 12 -99 14 -218 2 -113 8 -214 13 -223 4 -9 12 -34 15 -56 4 -21 16
-55 27 -75 10 -20 19 -46 19 -58 0 -13 9 -42 19 -66 31 -66 71 -169 71 -181 0
-6 6 -23 14 -37 7 -15 24 -60 36 -100 12 -41 28 -92 35 -114 7 -22 18 -67 25
-100 19 -94 39 -140 76 -176 19 -18 34 -39 34 -45 0 -20 20 -27 37 -13 12 11
17 11 27 -2 6 -9 16 -14 21 -12 6 2 17 -14 24 -34 7 -21 20 -46 28 -55 8 -9
18 -31 23 -50 9 -38 33 -101 40 -108 3 -3 18 -32 33 -65 16 -33 44 -83 62
-111 l34 -51 4 -184 c4 -175 13 -258 32 -288 4 -8 8 -28 7 -44 0 -17 4 -40 10
-51 7 -12 12 -34 12 -51 1 -47 30 -39 35 10 8 86 3 216 -10 231 -9 11 -10 17
-1 23 10 6 9 61 -2 80 -3 4 -8 47 -10 94 -3 58 -12 102 -27 137 -21 49 -21 54
-6 84 17 34 25 100 32 271 3 61 7 121 10 134 2 13 7 79 10 145 8 193 16 270
29 279 8 5 7 9 -2 15 -11 7 -10 20 6 68 17 50 18 62 7 80 -11 17 -11 22 2 30
9 6 16 32 19 79 2 39 5 86 7 105 1 19 8 39 15 43 6 4 12 15 12 22 0 26 27 16
76 -30 27 -25 54 -45 60 -45 6 0 16 -12 23 -27 8 -16 17 -35 21 -43 4 -8 16
-17 26 -19 10 -2 25 -12 32 -22 10 -15 27 -18 120 -18 124 0 175 7 165 22 -4
6 -1 7 7 2 12 -7 72 7 116 27 12 6 96 10 187 11 140 0 169 -2 191 -17 15 -9
31 -14 37 -11 5 4 16 2 24 -5 8 -6 54 -12 110 -13 53 0 98 -4 101 -9 3 -4 1
-8 -5 -8 -6 0 -8 -7 -5 -15 4 -8 18 -15 33 -15 15 0 31 -3 35 -7 4 -4 28 -8
54 -9 95 -3 162 -16 162 -32 0 -11 8 -8 29 12 24 23 35 27 60 21 19 -4 31 -3
31 4 0 6 10 19 21 30 18 17 21 27 15 61 -6 39 -5 40 21 40 26 1 27 2 10 14
-26 20 -2 31 25 12 28 -20 42 -20 34 -1 -9 24 21 32 87 24 44 -6 68 -4 82 5
11 7 47 18 80 24 87 17 104 18 103 7 -3 -30 -11 -43 -24 -38 -8 3 -14 1 -14
-5 0 -5 7 -13 16 -16 9 -3 14 -13 10 -21 -9 -24 59 -78 73 -57 7 10 216 8 243
-3 9 -4 39 -2 65 3 27 6 67 8 91 5 23 -3 70 0 104 7 122 25 163 29 291 34 61
2 139 11 173 19 37 9 67 11 77 6 8 -5 24 -8 34 -7 10 0 57 0 105 0 62 -2 87
-6 85 -14 -1 -6 19 -22 46 -35 26 -12 47 -28 47 -34 0 -6 6 -9 14 -6 8 3 20 0
26 -8 6 -8 31 -17 55 -21 24 -3 46 -12 49 -20 3 -8 13 -14 22 -14 16 0 16 1 1
18 -16 17 -16 20 6 39 12 11 28 22 36 25 29 8 20 38 -15 53 -19 8 -34 21 -34
31 0 10 -5 14 -15 10 -9 -3 -15 0 -15 9 0 8 -5 15 -12 15 -6 0 -3 9 7 20 14
16 31 20 80 20 35 0 66 5 73 12 7 7 26 13 41 14 22 1 31 -4 35 -20 9 -34 7
-94 -4 -101 -12 -7 -6 -95 7 -104 17 -10 33 -105 27 -155 -5 -35 -2 -51 10
-65 9 -10 18 -38 21 -62 10 -95 16 -179 20 -299 2 -69 9 -172 14 -230 6 -58
11 -136 12 -175 1 -38 5 -80 10 -93 6 -16 3 -38 -11 -74 -11 -29 -17 -62 -14
-75 4 -13 0 -33 -10 -48 -11 -17 -14 -36 -10 -69 5 -35 2 -56 -15 -91 -11 -25
-26 -45 -32 -45 -6 0 -8 -8 -4 -19 13 -41 14 -65 4 -77 -16 -20 -1 -34 35 -34
41 0 69 -26 40 -36 -52 -19 -73 -70 -32 -76 32 -5 35 -28 3 -28 -23 0 -26 -4
-23 -27 3 -25 7 -28 38 -28 31 0 35 4 43 35 6 19 11 73 11 120 1 47 7 94 13
105 6 11 14 74 18 140 14 230 14 255 0 269 -12 11 -12 17 0 32 8 11 15 25 15
33 0 8 18 34 41 58 22 24 47 61 56 81 8 20 26 60 39 87 14 29 24 67 23 90 -1
22 4 65 11 96 11 53 14 57 43 62 18 3 36 1 41 -3 4 -5 24 -6 42 -3 29 5 34 3
34 -15 0 -34 11 -52 31 -52 22 0 24 -11 7 -28 -10 -10 -10 -15 1 -21 11 -7 11
-9 0 -14 -11 -4 -10 -8 4 -23 16 -18 17 -17 19 6 0 14 1 31 1 37 -1 7 3 11 7
8 5 -3 10 7 12 22 5 42 30 34 53 -14 11 -24 23 -43 27 -43 12 0 78 61 78 72 0
6 15 28 34 49 22 23 37 53 41 76 3 21 10 45 15 53 28 44 50 103 50 130 0 17 8
56 19 88 23 69 31 153 32 334 1 118 3 141 20 161 21 28 32 116 19 153 -6 16
-6 39 0 62 5 20 14 57 21 82 6 25 18 60 27 78 15 31 17 32 71 29 56 -3 56 -3
100 45 l44 49 -2 152 c-1 86 -7 157 -13 164 -7 9 -7 38 1 94 12 88 4 140 -30
189 -9 14 -19 54 -22 95 -4 39 -11 95 -16 125 -6 30 -13 73 -16 95 -4 22 -20
68 -36 103 -16 35 -29 74 -29 87 0 13 -11 41 -25 61 -14 20 -25 43 -25 50 0 7
-11 24 -24 37 -13 13 -27 35 -31 48 -11 35 -62 103 -95 128 -16 11 -36 37 -46
56 -9 19 -20 35 -25 35 -12 0 -119 112 -154 160 -14 19 -34 53 -45 76 -18 39
-65 78 -166 140 -19 11 -50 35 -70 52 -20 18 -40 32 -44 32 -5 0 -32 20 -61
45 -29 25 -57 45 -62 45 -5 0 -42 23 -83 50 -41 28 -78 50 -82 50 -5 0 -21 14
-38 31 -28 30 -133 89 -157 89 -7 0 -17 10 -22 23 -7 15 -20 23 -42 25 -26 3
-39 13 -63 47 -37 53 -122 105 -173 105 -32 0 -75 14 -129 41 -10 5 -41 9 -70
9 -29 0 -66 7 -81 15 -25 13 -33 13 -70 -2 -75 -30 -89 -60 -28 -60 25 0 51
-9 71 -23 24 -17 44 -22 85 -21 30 0 67 -5 82 -11 24 -10 8 -13 -117 -19 -87
-4 -152 -3 -163 3 -11 5 -27 29 -38 53 -20 44 -21 45 -134 71 -16 3 -96 6
-176 5 -120 -1 -148 1 -159 14 -16 20 -61 19 -104 -2 -30 -14 -38 -14 -51 -3
-22 18 -55 84 -55 109 0 20 -32 46 -43 35 -3 -3 -15 0 -27 6 -17 9 -19 14 -9
26 19 23 -95 18 -150 -6 -24 -11 -49 -20 -56 -20 -7 0 -15 -3 -17 -7 -5 -12
-76 -43 -96 -43 -9 0 -30 9 -47 20 -16 11 -38 20 -47 20 -9 0 -24 10 -32 22
-20 28 -62 30 -136 6z m-1480 -2790 c0 -10 -8 -18 -17 -19 -12 0 -13 -2 -5 -6
10 -4 10 -8 1 -20 -10 -12 -10 -17 2 -24 10 -8 7 -8 -11 -4 -29 8 -72 45 -52
45 7 0 10 5 7 11 -10 14 25 38 53 36 14 -1 22 -8 22 -19z m-75 -78 c3 -5 1
-10 -4 -10 -6 0 -11 -4 -11 -10 0 -5 9 -10 20 -10 13 0 20 -7 20 -20 0 -10 8
-24 18 -29 10 -6 12 -11 4 -11 -7 0 -22 9 -34 20 -12 10 -26 17 -31 13 -6 -4
-7 -1 -2 7 4 7 2 16 -5 20 -7 4 -10 15 -7 24 7 18 23 21 32 6z m265 0 c13 -7
21 -7 25 0 14 23 42 9 59 -30 21 -48 16 -71 -13 -63 -15 4 -21 1 -21 -12 0
-12 -5 -15 -21 -10 -19 6 -21 4 -16 -14 6 -24 -8 -29 -17 -6 -3 8 -10 15 -17
15 -6 0 -9 -6 -6 -14 3 -8 1 -17 -6 -20 -7 -2 0 -5 16 -5 15 -1 27 -5 27 -10
0 -5 -12 -11 -27 -14 -16 -3 -48 -11 -72 -18 -39 -11 -45 -10 -57 5 -8 11 -18
15 -26 11 -7 -5 2 7 20 25 17 18 32 40 32 50 0 10 18 32 40 48 28 20 36 31 27
35 -8 3 -20 0 -26 -6 -18 -18 -13 1 6 23 19 22 44 25 73 10z m95 0 c3 -5 1
-10 -4 -10 -6 0 -11 5 -11 10 0 6 2 10 4 10 3 0 8 -4 11 -10z m2271 -52 c-3
-29 -6 -54 -6 -55 0 -1 -15 1 -33 4 -22 3 -38 0 -48 -9 -17 -17 -54 -38 -67
-38 -5 0 -9 15 -10 33 -2 54 73 112 152 116 16 1 18 -5 12 -51z m250 -13 c9
-13 17 -37 18 -52 2 -16 5 -35 7 -43 5 -17 -23 -20 -86 -9 -33 6 -43 4 -59
-13 -10 -10 -24 -17 -31 -14 -7 2 -35 -1 -62 -8 -26 -7 -53 -11 -60 -9 -6 2
-17 -5 -23 -16 -15 -29 -70 -30 -70 -1 0 11 6 20 13 20 6 0 21 14 32 30 11 16
26 30 32 30 7 0 20 11 29 25 10 15 26 25 40 25 13 0 24 5 24 10 0 6 7 10 15
10 7 0 18 7 23 17 7 12 18 15 43 11 19 -3 43 -2 54 3 33 13 44 10 61 -16z
m-2893 -24 c4 -17 2 -18 -13 -8 -10 6 -16 15 -14 19 9 14 22 9 27 -11z m2451
-64 c8 -12 7 -20 -3 -29 -11 -10 -14 -10 -18 0 -3 6 -13 12 -24 12 -10 0 -19
5 -19 10 0 6 7 10 15 10 8 0 15 5 15 11 0 15 21 6 34 -14z m-144 -132 c0 -16
-6 -25 -15 -25 -9 0 -15 9 -15 25 0 16 6 25 15 25 9 0 15 -9 15 -25z m1944
-751 c7 -19 9 -17 -22 -33 -13 -7 -26 -10 -30 -7 -3 3 0 6 6 6 7 0 12 11 12
25 0 28 24 34 34 9z m-111 -66 c-12 -14 -19 -15 -30 -7 -21 18 -15 28 16 26
27 -2 28 -3 14 -19z m21 -54 c5 -14 4 -15 -9 -4 -17 14 -19 20 -6 20 5 0 12
-7 15 -16z m-99 -203 c-15 -13 -85 -23 -85 -12 0 9 26 16 75 20 11 0 15 -3 10
-8z"/>
<path d="M4250 8970 c0 -5 5 -10 10 -10 6 0 10 5 10 10 0 6 -4 10 -10 10 -5 0
-10 -4 -10 -10z"/>
<path d="M6750 11810 c-22 -14 0 -28 30 -20 24 6 25 6 4 17 -12 7 -26 8 -34 3z"/>
<path d="M6470 11764 c-13 -33 -13 -32 10 -44 15 -8 26 -7 43 1 12 7 38 15 57
19 26 4 35 10 35 25 0 18 -8 20 -68 22 -64 2 -68 1 -77 -23z"/>
<path d="M8950 9009 c0 -5 5 -7 10 -4 6 3 10 8 10 11 0 2 -4 4 -10 4 -5 0 -10
-5 -10 -11z"/>
<path d="M5020 8392 c-14 -2 -32 -10 -41 -19 -14 -11 -18 -12 -21 -1 -4 10 -8
9 -20 -3 -14 -14 -12 -17 26 -34 22 -10 55 -19 72 -20 17 -1 35 -4 40 -7 5 -3
22 -8 38 -12 17 -4 42 -16 58 -27 15 -11 28 -17 28 -12 0 4 4 4 8 -2 19 -26
95 -76 108 -71 17 7 19 26 1 26 -16 0 -42 31 -42 50 0 8 -11 20 -25 27 -14 7
-25 18 -26 25 0 7 -2 21 -2 31 -2 12 -11 17 -33 17 -17 0 -38 4 -48 10 -27 14
-93 26 -121 22z"/>
<path d="M4809 8366 c-16 -34 -11 -37 34 -23 41 13 46 21 20 31 -10 3 -24 9
-30 12 -7 3 -18 -5 -24 -20z"/>
<path d="M4566 8355 c-15 -8 -35 -15 -42 -15 -18 0 -82 -40 -128 -81 -32 -28
-36 -35 -30 -65 4 -24 1 -40 -14 -62 -11 -15 -28 -48 -38 -72 -17 -43 -17 -43
5 -62 15 -11 39 -18 67 -18 31 0 44 -4 44 -14 0 -17 27 -29 35 -16 4 6 17 -3
31 -19 26 -32 69 -44 97 -29 25 13 6 35 -39 44 -69 13 -84 111 -25 154 16 11
34 20 39 20 6 0 12 4 14 10 2 5 19 16 39 24 42 17 64 8 56 -24 -9 -34 30 -125
65 -155 59 -50 103 -63 173 -53 23 4 125 120 125 143 0 20 19 57 34 68 15 10
54 0 86 -23 32 -23 95 -36 104 -21 9 14 -39 59 -84 80 -19 9 -55 30 -80 47
-57 39 -101 62 -131 68 -13 2 -35 7 -49 11 -14 3 -38 1 -53 -4 -18 -7 -44 -7
-84 1 -32 6 -69 11 -83 12 -21 1 -25 6 -25 31 0 28 -3 30 -40 33 -22 1 -53 -4
-69 -13z m-6 -89 c0 -2 -7 -7 -16 -10 -8 -3 -12 -2 -9 4 6 10 25 14 25 6z
m-130 -30 c0 -2 -7 -7 -16 -10 -8 -3 -12 -2 -9 4 6 10 25 14 25 6z m400 -126
c0 -5 -2 -10 -4 -10 -3 0 -8 5 -11 10 -3 6 -1 10 4 10 6 0 11 -4 11 -10z"/>
<path d="M4765 8350 c-3 -5 1 -10 9 -10 9 0 16 5 16 10 0 6 -4 10 -9 10 -6 0
-13 -4 -16 -10z"/>
<path d="M6528 8306 c-16 -5 -28 -16 -28 -23 0 -17 15 -16 30 2 7 8 21 15 31
15 11 0 19 4 19 8 0 11 -18 10 -52 -2z"/>
<path d="M6780 8285 c-81 -10 -107 -18 -175 -55 -44 -23 -87 -49 -96 -56 -8
-8 -19 -14 -23 -14 -9 0 -78 -51 -88 -65 -13 -18 -8 -31 12 -32 11 -1 20 2 20
7 0 5 10 12 23 15 12 4 52 18 89 32 68 26 98 26 98 -1 0 -9 11 -40 24 -71 17
-37 31 -55 43 -55 10 0 31 -7 47 -15 17 -9 51 -15 80 -14 28 1 59 -2 68 -6 35
-14 90 67 112 168 4 15 13 30 20 33 15 6 89 -41 125 -80 22 -23 23 -27 9 -43
-30 -35 -12 -43 92 -43 117 0 129 8 108 69 -8 25 -28 50 -57 72 -52 40 -56 53
-18 57 20 3 27 9 27 25 0 32 -10 43 -52 56 -21 7 -40 17 -43 22 -4 5 -15 9
-27 9 -17 0 -19 -4 -13 -27 3 -15 18 -38 33 -51 l26 -25 -25 8 c-13 4 -29 12
-36 17 -7 5 -17 7 -24 3 -6 -4 -24 2 -40 14 -18 14 -62 28 -112 37 -122 21
-124 22 -227 9z"/>
<path d="M6345 8020 c-3 -5 1 -10 9 -10 9 0 16 5 16 10 0 6 -4 10 -9 10 -6 0
-13 -4 -16 -10z"/>
<path d="M6493 8014 c-7 -3 -9 -12 -6 -20 7 -19 103 -20 103 0 0 19 -66 32
-97 20z"/>
<path d="M5320 7985 c0 -8 8 -15 19 -15 10 0 24 7 31 15 11 13 8 15 -19 15
-21 0 -31 -5 -31 -15z"/>
<path d="M6144 6980 c-69 -14 -141 -56 -146 -84 -7 -34 -1 -40 73 -73 4 -2 26
15 49 37 26 24 52 40 67 40 27 0 83 26 83 38 0 37 -57 56 -126 42z"/>
<path d="M5485 6973 c-24 -2 -53 -14 -70 -28 l-30 -25 29 -26 c20 -18 36 -24
52 -20 16 4 34 -4 64 -29 46 -38 61 -42 80 -21 6 8 30 16 53 18 30 2 43 8 45
21 2 9 -2 17 -8 17 -6 0 -25 16 -43 36 -33 38 -83 65 -114 62 -10 -1 -36 -3
-58 -5z"/>
<path d="M7874 6525 c-3 -19 -12 -39 -20 -46 -8 -6 -14 -29 -14 -50 0 -21 -5
-41 -11 -44 -6 -4 -7 -19 -4 -36 4 -18 3 -29 -4 -29 -6 0 -11 -7 -11 -16 0
-14 3 -14 15 -4 8 7 15 16 15 21 0 5 18 36 40 70 22 34 37 66 33 73 -4 6 -7
20 -8 31 -3 54 -6 65 -15 65 -5 0 -12 -16 -16 -35z"/>
<path d="M6575 6259 c-16 -5 -66 -9 -110 -8 -44 0 -98 -4 -120 -10 -51 -13
-68 -14 -60 -1 3 6 2 10 -4 10 -5 0 -12 -9 -16 -19 -5 -16 -15 -19 -62 -17
-47 1 -61 -3 -82 -22 -21 -19 -23 -25 -11 -32 21 -13 25 -13 78 11 44 21 53
21 145 11 54 -7 107 -16 117 -22 10 -5 30 -10 45 -10 14 0 37 -7 50 -16 19
-12 47 -16 116 -15 104 2 124 9 132 47 6 35 -37 77 -71 69 -13 -3 -21 -1 -20
6 5 20 -83 32 -127 18z"/>
<path d="M5044 6251 c3 -4 -6 -6 -19 -3 -17 3 -33 -4 -55 -24 -16 -16 -30 -34
-30 -41 0 -6 -4 -13 -8 -15 -10 -4 -56 -68 -51 -71 61 -33 80 -38 108 -32 17
3 33 6 36 6 2 0 18 4 35 9 21 6 29 5 27 -3 -1 -7 6 -11 15 -9 12 2 23 -9 34
-32 9 -19 28 -39 41 -45 34 -16 73 -14 79 4 4 8 15 15 25 15 25 0 24 30 -1 37
-11 3 -20 11 -20 18 0 15 42 27 65 19 12 -5 16 -2 13 12 -2 14 3 19 22 20 14
1 45 8 70 15 25 7 69 12 98 12 33 0 52 5 52 12 0 16 -76 50 -107 47 -32 -3
-70 17 -54 28 18 10 -88 21 -108 11 -32 -17 -115 -22 -154 -8 -20 7 -34 17
-30 20 3 4 -15 7 -41 7 -26 0 -45 -4 -42 -9z"/>
<path d="M7777 6193 c-4 -3 -7 -11 -7 -17 0 -6 5 -5 12 2 6 6 9 14 7 17 -3 3
-9 2 -12 -2z"/>
<path d="M7756 6149 c5 -29 1 -40 -20 -60 -14 -13 -26 -32 -26 -42 0 -11 -9
-31 -19 -46 -11 -15 -21 -47 -23 -72 -3 -40 -6 -44 -30 -47 -34 -4 -34 -7 -4
-37 24 -24 46 -18 46 12 0 7 9 27 20 45 11 18 20 43 20 55 0 12 9 27 20 33 10
6 24 27 29 48 11 41 11 123 0 116 -4 -2 -10 4 -13 13 -2 10 -2 2 0 -18z"/>
<path d="M5602 6154 c6 -33 168 -46 168 -13 0 6 -4 7 -10 4 -5 -3 -18 -2 -27
4 -10 5 -44 12 -76 16 -54 7 -59 6 -55 -11z"/>
<path d="M5840 6141 c-33 -6 -34 -7 -10 -14 31 -8 123 -9 144 -1 51 20 -48 31
-134 15z"/>
<path d="M5271 5956 l-23 -13 23 -6 c36 -10 39 -9 39 13 0 23 -6 24 -39 6z"/>
<path d="M5366 5851 c-4 -5 0 -11 6 -14 10 -3 10 -8 -1 -21 -12 -15 -11 -20
14 -46 16 -17 39 -30 52 -30 13 0 38 -6 56 -13 18 -8 38 -12 45 -9 7 2 27 -1
45 -8 29 -10 275 -13 382 -4 115 9 275 53 275 76 0 4 10 8 23 8 22 1 57 21 57
34 0 11 -120 6 -143 -6 -46 -24 -506 -52 -539 -32 -14 9 -162 34 -204 34 -23
0 -33 5 -37 20 -5 21 -22 27 -31 11z"/>
<path d="M4112 5841 c4 -13 18 -16 19 -4 0 4 -5 9 -11 12 -7 2 -11 -2 -8 -8z"/>
<path d="M7594 5755 c-9 -20 -25 -40 -35 -46 -29 -15 -23 -36 12 -43 45 -9 62
9 55 53 -4 20 -6 44 -7 54 0 25 -6 21 -25 -18z"/>
<path d="M4141 5681 c-10 -7 -11 -13 -2 -30 13 -24 44 -29 34 -6 -3 9 2 22 13
30 18 14 18 14 -6 15 -14 0 -31 -4 -39 -9z"/>
<path d="M4210 5640 c0 -5 5 -10 11 -10 5 0 7 5 4 10 -3 6 -8 10 -11 10 -2 0
-4 -4 -4 -10z"/>
<path d="M4236 5625 c-9 -26 -7 -32 5 -12 6 10 9 21 6 23 -2 3 -7 -2 -11 -11z"/>
<path d="M4310 5598 c-11 -18 -20 -35 -20 -38 0 -12 57 -30 92 -30 39 0 46 -8
26 -28 -9 -9 -8 -15 8 -27 18 -14 18 -14 -4 -15 -14 0 -21 -4 -17 -11 4 -5 17
-9 28 -7 26 3 50 -10 42 -22 -3 -5 -1 -11 5 -15 5 -3 10 0 11 7 0 7 7 0 14
-17 14 -28 15 -29 21 -8 7 26 34 39 46 21 6 -10 8 -10 8 0 0 6 5 12 10 12 18
0 11 -29 -10 -40 -17 -9 -18 -14 -9 -31 14 -26 5 -49 -19 -49 -21 0 -62 43
-62 64 0 15 -10 19 -69 31 -49 10 -101 43 -94 61 3 9 -1 14 -12 14 -14 0 -15
3 -6 14 14 17 0 29 -23 20 -18 -7 -21 -35 -7 -49 6 -6 11 -34 13 -64 3 -50 5
-55 32 -64 17 -6 41 -22 55 -37 14 -15 43 -39 64 -55 20 -15 37 -34 37 -42 0
-9 6 -13 14 -10 7 3 28 -8 45 -24 18 -16 36 -29 41 -29 5 0 11 -8 14 -18 7
-22 93 -95 104 -88 5 3 17 -9 27 -27 10 -18 27 -38 38 -46 12 -8 17 -21 14
-33 -5 -16 -2 -19 15 -15 14 4 22 0 25 -13 3 -11 16 -26 29 -35 13 -8 24 -25
24 -36 0 -18 5 -21 31 -17 31 5 103 -15 127 -34 6 -6 28 -8 46 -5 33 5 59 -8
55 -29 -5 -27 4 -34 41 -34 30 0 40 4 40 16 0 11 6 13 19 9 11 -3 25 1 34 10
19 19 23 19 31 -1 3 -8 2 -13 -3 -10 -5 3 -14 0 -20 -8 -9 -11 -8 -15 5 -20
26 -10 134 -7 134 4 0 16 27 12 34 -6 3 -8 14 -14 23 -13 40 4 63 -2 63 -15 0
-8 14 -17 30 -21 17 -4 30 -13 30 -20 0 -19 28 -27 52 -14 26 14 147 7 156 -8
11 -18 144 -12 159 7 10 13 13 13 30 -3 22 -19 79 -23 85 -5 3 7 26 13 58 14
30 1 56 6 58 13 2 6 12 11 21 11 10 0 23 11 29 25 7 14 23 30 37 37 14 6 25
15 25 20 0 4 6 8 14 8 9 0 12 -7 9 -19 -5 -18 -2 -19 31 -9 20 6 36 17 36 25
0 8 12 13 33 13 18 0 38 5 45 12 7 7 12 9 12 5 0 -4 9 -3 21 3 12 7 18 18 15
26 -3 8 1 14 9 14 8 0 25 10 36 21 18 18 25 20 40 11 15 -10 21 -7 35 18 10
16 22 27 26 24 5 -3 15 0 23 6 8 7 22 10 30 6 8 -3 15 -1 15 4 0 5 16 17 35
26 19 9 43 29 52 45 12 20 23 27 34 24 12 -4 20 1 24 15 4 12 19 27 33 33 15
6 32 19 39 27 6 8 15 11 19 7 5 -4 2 -12 -6 -17 -9 -6 -10 -10 -3 -10 21 0 25
21 7 41 -9 10 -15 19 -13 20 2 0 13 2 24 4 10 2 25 -1 31 -6 8 -6 13 -6 16 0
4 11 58 2 58 -10 0 -5 -6 -9 -13 -9 -15 0 -44 -46 -35 -55 10 -10 79 62 86 90
6 21 19 32 52 45 43 17 80 57 101 108 5 12 13 21 18 20 12 -4 95 91 86 100 -3
4 -31 7 -60 8 -43 0 -55 -3 -58 -17 -3 -10 0 -20 7 -23 8 -3 8 -5 -1 -5 -6 -1
-19 6 -28 15 -15 15 -17 15 -31 -5 -8 -11 -26 -21 -39 -21 -13 0 -27 -5 -30
-10 -4 -6 -15 -8 -26 -5 -14 5 -17 3 -13 -9 7 -17 -20 -23 -30 -7 -3 4 -16 6
-30 4 -25 -5 -42 10 -30 28 5 8 9 8 14 -1 6 -9 17 -6 42 14 19 14 47 26 61 26
30 0 34 11 12 30 -13 11 -14 10 -9 -5 6 -15 3 -15 -32 3 -21 10 -46 17 -54 14
-13 -5 -13 -3 -1 11 11 14 11 20 1 32 -18 21 -32 19 -25 -5 4 -11 2 -20 -4
-20 -6 0 -27 -11 -47 -25 -22 -15 -45 -23 -56 -19 -11 3 -20 0 -24 -9 -3 -8
-15 -18 -27 -21 -17 -4 -19 -8 -9 -18 6 -6 12 -19 12 -28 0 -8 14 -28 30 -43
26 -25 40 -57 25 -57 -3 0 -25 20 -50 45 l-46 45 -43 -33 c-24 -17 -52 -49
-61 -69 -9 -21 -23 -38 -32 -38 -9 0 -13 6 -9 15 3 9 0 15 -9 15 -9 0 -15 -10
-15 -25 0 -14 -5 -25 -10 -25 -6 0 -14 -10 -19 -23 -8 -20 -15 -23 -46 -19
-27 3 -40 0 -50 -14 -19 -25 -19 -34 0 -34 24 0 17 -13 -18 -36 -40 -26 -84
-37 -92 -24 -3 6 -17 7 -31 4 -18 -5 -29 -1 -39 12 -7 10 -11 22 -8 27 5 9
-105 -49 -125 -66 -10 -8 -21 -2 -45 24 -36 38 -77 65 -77 49 0 -15 -28 -12
-57 7 -26 17 -27 17 -20 0 7 -20 -13 -23 -44 -7 -14 8 -19 7 -19 -3 0 -9 -11
-14 -27 -14 -28 0 -95 -11 -121 -19 -7 -2 -10 -8 -7 -14 4 -7 12 -7 25 0 21
11 39 -5 24 -20 -13 -13 -64 0 -64 16 0 22 -46 16 -64 -8 -12 -16 -18 -19 -22
-10 -8 18 -44 15 -67 -5 -19 -17 -20 -17 -15 4 4 16 1 24 -14 29 -12 4 -24 1
-29 -7 -6 -11 -9 -10 -15 4 -6 15 -14 17 -59 12 -56 -7 -77 4 -55 30 21 26 6
41 -18 17 -12 -12 -31 -22 -41 -22 -11 0 -23 -5 -26 -10 -4 -6 -11 -8 -16 -5
-11 7 -12 66 -1 63 4 -2 18 5 32 15 13 9 18 17 11 17 -11 0 -11 3 -1 15 10 12
10 21 1 41 -6 15 -7 23 -1 19 6 -3 10 3 10 15 0 15 -5 20 -15 17 -8 -4 -17 -2
-21 4 -3 5 -13 9 -22 8 -38 -3 -44 0 -28 16 8 9 13 22 10 30 -7 18 -24 20 -24
3 0 -10 -3 -9 -9 1 -6 10 -13 11 -29 2 -11 -6 -34 -11 -50 -11 -36 0 -52 -37
-25 -57 15 -11 13 -13 -14 -13 -22 0 -33 -5 -35 -17 -5 -24 -58 58 -58 88 0
19 -4 21 -35 16 -51 -8 -105 16 -102 46 2 20 -2 22 -37 20 -22 -2 -43 -8 -46
-13 -4 -7 -11 -6 -20 5 -7 8 -19 15 -26 15 -17 0 -18 12 -1 29 10 10 9 11 -3
6 -10 -3 -32 9 -58 30 -42 37 -63 43 -94 30 -12 -5 -18 -3 -18 6 0 10 -3 10
-12 1 -9 -9 -16 -8 -29 4 -12 11 -36 16 -69 16 -42 0 -50 3 -50 19 0 13 -15
26 -44 40 -53 24 -70 43 -62 64 11 29 -24 15 -44 -17z m2644 -234 c24 -23 20
-44 -9 -44 -29 0 -34 16 -7 23 9 3 0 5 -20 6 -37 1 -51 14 -25 24 24 10 46 7
61 -9z m281 -44 c-3 -5 -17 -10 -31 -10 -13 0 -24 5 -24 10 0 6 14 10 31 10
17 0 28 -4 24 -10z m-70 -31 c11 0 14 -3 8 -6 -7 -2 -13 -11 -13 -18 0 -11
-20 -25 -36 -25 -3 0 -9 12 -15 27 -11 28 7 51 25 33 6 -6 19 -10 31 -11z
m-2205 -18 c0 -4 -6 -8 -12 -8 -7 0 -21 -4 -30 -8 -12 -5 -18 -3 -18 7 0 8 2
17 5 20 8 7 55 -3 55 -11z m50 5 c0 -2 3 -11 6 -20 3 -9 1 -16 -5 -16 -6 0
-11 6 -11 14 0 8 -6 17 -12 19 -8 3 -6 6 5 6 9 1 17 -1 17 -3z m390 -256 c0
-5 -4 -10 -9 -10 -6 0 -13 5 -16 10 -3 6 1 10 9 10 9 0 16 -4 16 -10z m896
-35 c4 -8 14 -15 23 -16 10 0 8 -4 -8 -10 -13 -5 -26 -7 -29 -4 -3 3 1 5 9 5
10 1 9 3 -3 11 -20 11 -24 29 -8 29 6 0 13 -7 16 -15z m-239 -1 c-3 -3 -12 -4
-19 -1 -8 3 -5 6 6 6 11 1 17 -2 13 -5z m-90 -10 c-3 -3 -12 -4 -19 -1 -8 3
-5 6 6 6 11 1 17 -2 13 -5z m-1010 -166 c-3 -8 -6 -5 -6 6 -1 11 2 17 5 13 3
-3 4 -12 1 -19z m237 -73 c-4 -8 -12 -15 -20 -15 -8 0 -14 7 -14 15 0 8 9 15
20 15 13 0 18 -5 14 -15z"/>
<path d="M4185 5610 c-3 -5 -1 -10 4 -10 6 0 11 5 11 10 0 6 -2 10 -4 10 -3 0
-8 -4 -11 -10z"/>
<path d="M6926 5585 c-3 -9 1 -18 9 -21 16 -6 45 12 45 27 0 16 -48 10 -54 -6z"/>
<path d="M4192 5563 c2 -10 11 -19 21 -21 23 -5 21 10 -4 26 -18 12 -20 11
-17 -5z"/>
<path d="M7120 5570 c0 -5 5 -10 10 -10 6 0 10 5 10 10 0 6 -4 10 -10 10 -5 0
-10 -4 -10 -10z"/>
<path d="M7420 5509 c-8 -5 -32 -9 -52 -9 -20 0 -39 -4 -42 -9 -7 -11 51 -56
82 -63 26 -7 28 1 7 28 -20 26 -19 37 4 31 11 -3 22 1 25 9 7 18 -6 25 -24 13z"/>
<path d="M7040 5480 c0 -5 5 -10 10 -10 6 0 10 5 10 10 0 6 -4 10 -10 10 -5 0
-10 -4 -10 -10z"/>
<path d="M4830 5390 c0 -5 7 -10 16 -10 8 0 12 5 9 10 -3 6 -10 10 -16 10 -5
0 -9 -4 -9 -10z"/>
<path d="M5332 5334 c0 -33 10 -44 23 -24 3 5 12 7 20 3 8 -3 15 -1 15 3 -1
14 -24 40 -41 46 -14 5 -17 0 -17 -28z"/>
<path d="M6345 5210 c-9 -15 -7 -17 43 -25 28 -4 42 -3 42 4 0 6 -13 11 -28
11 -15 0 -33 5 -39 11 -8 8 -13 8 -18 -1z"/>
<path d="M6555 5130 c-3 -5 3 -10 14 -10 12 0 21 5 21 10 0 6 -6 10 -14 10 -8
0 -18 -4 -21 -10z"/>
<path d="M6425 5113 c17 -9 33 -21 37 -27 5 -7 11 -7 17 -1 16 16 -1 31 -44
38 l-40 6 30 -16z"/>
<path d="M5377 5095 c-21 -29 -8 -33 36 -12 38 17 43 37 9 37 -17 -1 -34 -10
-45 -25z"/>
<path d="M6320 5105 c-7 -9 -11 -16 -9 -18 53 -30 59 -30 51 8 -5 28 -23 32
-42 10z"/>
<path d="M6386 5101 c-4 -7 -5 -15 -2 -18 9 -9 19 4 14 18 -4 11 -6 11 -12 0z"/>
<path d="M6990 5066 c0 -8 5 -18 10 -21 6 -3 10 3 10 14 0 12 -4 21 -10 21 -5
0 -10 -6 -10 -14z"/>
<path d="M7623 4775 c4 -8 2 -17 -3 -20 -7 -4 -6 -13 0 -25 5 -10 10 -29 9
-42 -1 -26 21 -89 38 -109 6 -8 15 -28 19 -44 4 -17 14 -35 23 -42 13 -9 14
-16 5 -30 -9 -15 -9 -27 1 -50 8 -18 18 -82 25 -144 12 -125 15 -534 3 -552
-7 -11 -11 -43 -18 -149 -1 -26 -5 -57 -8 -70 -5 -20 -14 -112 -22 -238 -1
-19 -4 -35 -5 -35 -8 0 -6 -142 2 -152 6 -7 7 -25 4 -39 -9 -33 35 -104 64
-104 26 0 34 -17 10 -23 -31 -8 -24 -25 17 -42 34 -15 41 -14 81 1 23 9 56 27
71 40 16 13 35 24 43 24 7 0 26 14 41 31 28 32 47 31 47 -1 0 -21 -66 -69
-140 -101 -42 -18 -50 -26 -50 -49 0 -15 9 -35 20 -45 17 -15 28 -55 16 -55
-2 0 -27 15 -54 33 -28 17 -68 42 -89 55 -35 21 -73 70 -73 94 0 5 -10 24 -22
41 l-22 31 -14 -65 c-17 -81 -26 -151 -41 -314 -27 -307 -43 -453 -65 -605 -8
-58 -15 -127 -16 -153 0 -43 3 -50 30 -65 16 -9 30 -25 30 -36 0 -16 -5 -18
-35 -13 -34 6 -35 5 -35 -28 0 -18 5 -57 12 -85 9 -39 9 -74 0 -153 -14 -118
-17 -423 -6 -862 4 -171 7 -372 8 -448 l1 -137 2443 0 2442 0 0 1005 c0 991 0
1006 -20 1046 -11 21 -25 71 -29 110 -5 38 -14 75 -19 82 -5 7 -15 39 -22 72
-7 33 -23 81 -36 107 -13 26 -24 52 -24 58 0 5 -18 26 -40 46 -22 20 -40 41
-40 48 0 6 -45 37 -99 69 -88 51 -104 57 -155 57 -31 0 -73 7 -92 15 -20 8
-40 13 -44 10 -4 -3 -10 4 -13 15 -5 19 -59 49 -100 57 -10 2 -56 23 -103 48
-46 25 -93 45 -104 45 -11 0 -44 14 -74 30 -49 28 -183 80 -205 80 -6 0 -30
14 -55 30 -24 17 -59 33 -78 36 -18 4 -38 11 -45 16 -38 30 -167 88 -196 88
-39 0 -122 28 -157 53 -13 9 -37 17 -52 17 -15 0 -30 5 -33 10 -4 6 -12 10
-18 8 -27 -5 -180 38 -214 60 -13 8 -23 12 -23 9 0 -3 -24 3 -52 13 -59 21
-68 19 -68 -15 0 -13 -5 -27 -11 -31 -14 -8 -29 14 -29 42 0 17 -12 25 -62 42
-38 13 -67 18 -76 13 -10 -6 -21 -4 -30 5 -8 9 -23 12 -39 8 -17 -5 -33 0 -52
14 -33 24 -93 42 -141 42 -33 0 -125 26 -197 56 -37 15 -41 10 -16 -18 12 -14
17 -40 19 -106 1 -48 2 -91 3 -97 0 -5 19 -30 41 -55 22 -25 40 -54 40 -66 0
-11 22 -45 50 -75 53 -58 59 -69 35 -69 -19 0 -53 34 -80 81 -11 19 -32 56
-48 83 -15 27 -39 58 -53 68 -22 18 -24 25 -20 92 2 50 -1 78 -10 91 -7 10
-11 22 -8 27 3 4 2 17 -1 28 -5 16 -13 20 -41 17 -19 -2 -40 -9 -46 -15 -19
-19 -25 -15 -42 29 -13 33 -20 39 -36 34 -13 -4 -20 -2 -20 7 0 12 -84 57
-114 62 -6 1 -16 4 -21 8 -6 3 -28 9 -50 13 -22 4 -67 20 -100 35 -33 15 -80
33 -105 40 -25 7 -55 16 -68 21 -13 5 -33 9 -46 9 -12 0 -41 9 -64 20 -22 11
-47 20 -55 20 -7 0 -17 4 -22 9 -14 13 -107 31 -203 40 -84 8 -84 8 -127 56
-29 31 -49 45 -60 42 -10 -4 -15 -1 -15 11 -1 31 -64 120 -120 166 -13 12 -47
42 -74 69 -28 26 -54 47 -59 47 -13 0 -137 121 -137 134 0 7 -9 29 -20 51 -11
22 -20 47 -20 57 0 9 -4 20 -10 23 -5 3 -18 25 -28 48 -11 23 -31 54 -45 70
-15 15 -41 54 -59 87 -18 32 -43 64 -56 69 -31 14 -35 14 -29 -4z m407 -660
c0 -15 -25 -55 -35 -55 -6 0 -22 -11 -35 -25 -13 -14 -29 -25 -36 -25 -7 0
-22 -9 -33 -21 -23 -25 -56 -22 -56 6 0 14 18 27 72 50 40 16 73 35 73 41 0
14 21 34 37 34 7 0 13 -2 13 -5z m545 -405 c4 -6 -9 -10 -32 -9 -38 1 -38 1
-8 9 17 4 31 8 32 9 1 0 5 -3 8 -9z m-275 -63 c0 -31 0 -31 -15 -10 -8 12 -12
28 -9 37 9 25 24 8 24 -27z m754 -82 c11 -8 28 -15 37 -15 21 0 83 -39 97 -61
9 -13 6 -15 -14 -11 -13 2 -29 10 -35 18 -15 18 -28 18 -49 -1 -15 -14 -19
-12 -42 14 -15 16 -32 31 -40 33 -11 4 -11 8 1 21 16 20 20 21 45 2z m-79 -55
c-19 -21 -75 -28 -75 -10 0 6 10 10 23 10 12 0 29 5 37 10 26 17 34 11 15 -10z
m-1055 -44 c0 -3 -4 -8 -10 -11 -5 -3 -10 -1 -10 4 0 6 5 11 10 11 6 0 10 -2
10 -4z m756 -21 c-4 -14 -15 -34 -26 -45 -20 -20 -20 -20 -20 5 0 25 27 65 43
65 5 0 6 -11 3 -25z m274 -9 c0 -8 3 -23 6 -33 5 -16 4 -16 -10 1 -18 22 -21
46 -6 46 6 0 10 -6 10 -14z m-380 -16 c13 -8 13 -11 -2 -27 -10 -9 -18 -12
-18 -6 0 6 -3 18 -6 27 -7 18 4 20 26 6z m790 -25 c7 -14 10 -28 6 -32 -10
-10 -50 33 -42 46 11 17 21 13 36 -14z m-312 -37 c18 -18 15 -28 -8 -28 -10 0
-24 9 -30 20 -9 17 -8 20 8 20 10 0 23 -5 30 -12z m-468 -13 c10 -12 10 -19 1
-28 -9 -9 -14 -9 -21 3 -22 34 -4 54 20 25z m-60 -9 c0 -18 -6 -22 -52 -30
-21 -4 -38 -3 -38 2 0 5 17 16 38 25 48 20 52 20 52 3z m601 -22 c11 -14 10
-15 -11 -12 -13 1 -25 9 -28 16 -5 17 23 15 39 -4z m-1187 0 c26 -10 18 -32
-15 -39 -39 -9 -47 0 -24 25 21 23 18 22 39 14z m1919 -8 c16 -10 54 -13 135
-12 121 1 143 -3 125 -26 -20 -23 -277 -14 -307 11 -40 33 1 56 47 27z m497
-117 c0 -6 -4 -7 -10 -4 -5 3 -10 11 -10 16 0 6 5 7 10 4 6 -3 10 -11 10 -16z
m-950 -9 c25 13 50 7 50 -14 0 -18 25 -28 56 -20 36 9 29 -11 -12 -35 -43 -26
-44 -26 -44 -2 0 26 -27 45 -63 46 -23 0 -33 5 -36 20 -3 16 -1 17 12 6 12 -9
21 -10 37 -1z m10 -99 c0 -4 -25 -15 -56 -25 -52 -16 -58 -16 -72 -2 -15 15
-14 16 13 16 17 1 44 7 60 14 29 13 55 11 55 -3z m224 -126 c3 -9 18 -15 35
-15 16 0 33 -4 36 -10 3 -5 14 -10 24 -10 9 0 26 -6 37 -14 15 -12 17 -17 7
-27 -10 -10 -16 -10 -25 -1 -7 7 -24 12 -38 12 -36 0 -100 46 -100 72 0 14 18
9 24 -7z m-976 -73 c3 -9 -2 -13 -14 -10 -9 1 -19 9 -22 16 -3 9 2 13 14 10 9
-1 19 -9 22 -16z m225 -22 c19 -18 26 -30 18 -30 -16 0 -61 38 -61 52 0 14 10
9 43 -22z m-793 -22 c9 -19 34 -43 60 -58 25 -15 45 -33 45 -41 0 -13 -6 -13
-47 -2 -14 4 -18 -1 -18 -25 0 -17 5 -34 10 -37 6 -4 10 -12 8 -18 -4 -26 26
-164 43 -197 10 -19 35 -49 55 -66 28 -24 35 -36 30 -52 -7 -21 -9 -21 -36 -7
-49 25 -78 73 -90 150 -6 39 -18 103 -27 142 -9 40 -13 76 -10 80 4 3 -1 16
-12 27 -17 20 -45 136 -32 136 3 0 13 -15 21 -32z m1050 -19 c15 -17 31 -45
34 -63 3 -17 8 -46 12 -63 4 -21 2 -33 -5 -33 -14 0 -31 33 -31 62 -1 13 -12
36 -25 52 -21 26 -27 28 -48 19 -26 -12 -77 -6 -77 9 0 6 9 8 20 5 13 -3 31 3
48 19 35 30 38 30 72 -7z m448 -15 c28 -6 21 -20 -14 -27 -29 -5 -94 17 -94
32 0 8 55 6 108 -5z m-248 -14 c0 -11 -4 -20 -10 -20 -5 0 -10 9 -10 20 0 11
5 20 10 20 6 0 10 -9 10 -20z m-748 -42 c-7 -7 -12 -17 -12 -23 0 -12 56 -35
87 -35 28 0 47 -24 30 -38 -13 -12 -140 17 -159 36 -16 16 -5 45 22 59 32 16
48 17 32 1z m348 -27 c0 -5 -7 -11 -15 -15 -15 -5 -20 5 -8 17 9 10 23 9 23
-2z m-50 -111 c0 -5 -2 -10 -4 -10 -3 0 -8 5 -11 10 -3 6 -1 10 4 10 6 0 11
-4 11 -10z m65 -130 c-3 -5 -11 -10 -16 -10 -5 0 -19 -9 -30 -19 -22 -21 -104
-47 -132 -43 -9 2 -20 -4 -23 -12 -14 -36 -67 2 -69 49 0 6 31 11 70 11 71 2
182 18 193 28 9 10 14 7 7 -4z m75 -131 c0 -10 -4 -19 -10 -19 -5 0 -10 12
-10 26 0 14 4 23 10 19 6 -3 10 -15 10 -26z m-1010 -164 c10 -13 9 -15 -9 -15
-12 0 -21 6 -21 15 0 8 4 15 9 15 5 0 14 -7 21 -15z m-310 -60 c13 -25 21 -47
18 -50 -9 -10 -91 72 -84 84 15 24 43 10 66 -34z m-66 -377 c-4 -6 -10 -5 -15
3 -14 22 -10 33 6 19 8 -7 12 -17 9 -22z m96 17 c15 -18 14 -20 -22 -29 -31
-7 -33 -4 -18 25 13 23 23 24 40 4z m-103 -129 c13 -27 21 -51 19 -54 -9 -8
-36 19 -36 37 -1 9 -7 27 -14 40 -8 14 -11 32 -8 40 5 13 6 13 10 0 2 -7 15
-36 29 -63z m4249 -467 c18 -15 9 -29 -20 -29 -24 0 -61 32 -49 43 9 9 52 1
69 -14z m355 -390 c4 -8 13 -27 20 -44 7 -16 15 -33 17 -37 2 -5 -1 -8 -6 -8
-12 0 -62 78 -62 97 0 18 21 13 31 -8z m92 -263 c8 -66 7 -90 -6 -126 l-15
-45 -6 65 c-3 36 -8 103 -10 149 -5 81 -5 84 11 62 8 -13 20 -60 26 -105z
m-31 -218 c-8 -8 -9 -4 -5 13 4 13 8 18 11 10 2 -7 -1 -18 -6 -23z m-37 -64
c0 -12 -8 -20 -22 -22 -26 -4 -28 0 -11 28 15 24 33 21 33 -6z"/>
<path d="M4323 4702 c-23 -3 -63 -53 -96 -119 -9 -17 -30 -46 -47 -64 -16 -19
-30 -39 -30 -46 0 -7 -9 -17 -19 -23 -19 -10 -105 -118 -175 -220 -21 -30 -60
-79 -88 -109 -27 -29 -63 -72 -79 -95 -17 -22 -55 -67 -86 -99 -52 -53 -59
-58 -97 -56 -23 1 -72 -5 -111 -14 -38 -9 -106 -23 -150 -33 -44 -9 -90 -23
-102 -30 -12 -8 -29 -14 -38 -14 -8 0 -34 -9 -58 -19 -23 -11 -55 -22 -72 -26
-16 -3 -48 -18 -70 -33 -22 -14 -42 -27 -45 -27 -3 -1 -32 -14 -65 -29 -106
-50 -118 -54 -225 -87 -92 -28 -132 -43 -215 -79 -11 -5 -38 -14 -60 -21 -22
-7 -61 -25 -86 -41 -25 -15 -50 -28 -54 -28 -7 0 -25 -8 -130 -55 -138 -62
-208 -85 -260 -85 -21 0 -52 -4 -69 -9 -225 -68 -261 -78 -316 -85 -14 -2 -45
-11 -70 -21 -25 -9 -63 -24 -85 -32 -22 -8 -49 -19 -60 -23 -11 -5 -54 -20
-95 -35 -41 -15 -91 -33 -111 -40 -20 -8 -65 -21 -100 -30 -35 -9 -80 -23 -99
-32 -19 -8 -44 -18 -55 -23 -11 -4 -58 -26 -105 -49 -47 -23 -92 -41 -100 -41
-9 0 -24 -6 -35 -14 -11 -8 -54 -31 -95 -52 -41 -21 -77 -41 -80 -44 -16 -16
-71 -50 -84 -50 -7 0 -28 -13 -44 -29 -23 -20 -45 -30 -83 -34 -29 -4 -57 -11
-63 -17 -5 -5 -20 -10 -33 -10 -12 0 -26 -6 -30 -12 -4 -7 -17 -18 -28 -24
-20 -11 -20 -23 -23 -1278 l-2 -1266 2403 0 2403 0 -8 78 c-11 114 -30 271
-37 317 -6 39 -8 40 -49 42 -31 2 -51 -3 -72 -19 -24 -17 -32 -19 -45 -8 -28
23 -18 43 20 38 19 -2 35 -1 35 3 0 10 39 23 65 24 19 0 20 6 18 120 -3 116
-18 239 -33 260 -4 6 -7 33 -8 60 0 28 -10 137 -21 244 -10 106 -17 199 -14
206 2 7 -1 30 -7 52 -6 21 -15 101 -21 178 -16 202 -16 204 -27 218 -5 6 -10
46 -11 87 -2 41 -9 125 -17 185 -9 61 -16 126 -17 145 -1 19 -8 45 -15 57 -8
14 -13 65 -13 135 -1 62 -5 136 -11 164 -8 46 -11 76 -23 204 -1 19 -6 51 -9
70 -4 19 -9 69 -11 110 -7 157 -16 247 -30 318 -9 40 -18 132 -20 204 -3 73
-10 137 -16 144 -16 20 -25 265 -19 536 1 94 6 130 16 139 16 13 20 129 5 129
-5 0 -11 21 -14 48 -21 180 -35 220 -74 214z m-29 -2419 c4 -9 3 -20 -2 -25
-11 -11 -47 16 -38 30 11 17 33 15 40 -5z m-904 -1444 c0 -5 -9 -9 -20 -9 -11
0 -20 6 -20 14 0 9 7 12 20 9 11 -3 20 -9 20 -14z m1015 -370 c0 -15 -7 -25
-17 -27 -13 -3 -18 3 -18 21 0 13 3 27 7 31 13 12 28 -1 28 -25z m-645 -31 c0
-13 -32 -6 -37 9 -3 7 3 9 16 6 12 -3 21 -10 21 -15z m560 -3 c0 -9 -7 -18
-16 -22 -18 -7 -39 11 -30 26 11 17 46 13 46 -4z m-127 -7 c7 -23 -5 -48 -24
-48 -19 0 -24 16 -13 44 7 19 31 21 37 4z m-1023 -15 c0 -5 -4 -15 -10 -23
-11 -18 -25 -7 -17 15 6 15 27 21 27 8z m1300 -13 c0 -5 -4 -10 -10 -10 -5 0
-10 5 -10 10 0 6 5 10 10 10 6 0 10 -4 10 -10z m-3312 -292 c-7 -19 -77 -33
-91 -19 -17 17 9 31 56 31 26 0 37 -4 35 -12z"/>
<path d="M7611 4581 c-6 -11 -11 -36 -11 -55 0 -29 4 -36 20 -36 16 0 20 7 22
40 0 22 1 45 2 52 2 20 -22 20 -33 -1z"/>
<path d="M7587 4284 c-10 -11 -8 -64 2 -64 14 0 23 37 14 55 -5 9 -12 12 -16
9z"/>
<path d="M7558 4179 c-12 -6 -18 -22 -18 -43 0 -18 -8 -44 -19 -57 -10 -13
-22 -44 -26 -69 -4 -25 -14 -61 -22 -80 -9 -24 -12 -51 -8 -82 6 -42 10 -48
31 -48 13 0 25 3 25 8 1 4 3 18 4 32 4 49 27 140 36 146 6 3 9 25 8 48 -1 22
1 53 5 67 4 14 6 40 4 57 -3 26 -6 29 -20 21z"/>
<path d="M4640 3672 c0 -26 6 -45 19 -56 11 -10 21 -29 23 -42 2 -14 8 -23 13
-22 11 3 15 68 4 83 -4 6 -9 24 -11 40 -2 22 -9 31 -25 33 -21 3 -23 -1 -23
-36z"/>
<path d="M4710 3500 c0 -5 5 -10 11 -10 5 0 7 5 4 10 -3 6 -8 10 -11 10 -2 0
-4 -4 -4 -10z"/>
<path d="M4720 3416 c0 -30 4 -36 21 -36 17 0 20 5 17 32 -2 22 -9 34 -20 36
-15 3 -18 -4 -18 -32z"/>
<path d="M7030 3279 c0 -5 4 -7 10 -4 6 3 7 -1 4 -9 -3 -9 -12 -16 -20 -16
-15 0 -37 -35 -39 -62 -1 -10 -9 -26 -18 -36 -9 -10 -17 -26 -17 -35 0 -9 -4
-19 -10 -22 -5 -3 -10 -13 -10 -22 0 -8 -9 -26 -20 -40 -11 -14 -20 -38 -20
-53 0 -15 -7 -33 -16 -41 -10 -8 -14 -22 -10 -40 4 -20 -1 -34 -19 -54 -18
-18 -25 -38 -25 -64 0 -21 -11 -63 -24 -92 -19 -42 -23 -63 -18 -94 4 -22 12
-40 17 -40 6 0 16 -4 23 -8 6 -5 17 -5 24 -1 8 5 6 10 -8 15 -18 7 -18 8 2 8
31 1 67 57 60 93 -5 23 -2 31 12 34 17 5 42 46 42 70 0 6 11 28 25 49 14 20
24 42 22 49 -2 6 2 24 8 40 8 18 10 54 7 92 -4 54 -2 64 15 74 14 9 18 21 15
47 -3 27 0 38 17 49 23 17 28 56 11 98 -9 25 -40 37 -40 15z"/>
<path d="M5044 2566 c-11 -28 1 -61 22 -64 27 -4 46 20 39 50 -7 27 -52 37
-61 14z"/>
</g>
</svg>
